<?xml version="1.0" encoding="UTF-8"?>
<svg width="120px" height="23px" viewBox="0 0 120 23" version="1.1" xmlns="http://www.w3.org/2000/svg" xmlns:xlink="http://www.w3.org/1999/xlink">
    <!-- Generator: Sketch 53 (72520) - https://sketchapp.com -->
    <title>Logo</title>
    <desc>Created with Sketch.</desc>
    <g id="Symbols" stroke="none" stroke-width="1" fill="none" fill-rule="evenodd">
        <g id="Desktop-Header" transform="translate(-15.000000, -14.000000)" fill="#231F20">
            <g id="Group">
                <g id="Logo" transform="translate(15.000000, 14.000000)">
                    <g id="18_02_01_logo_vector">
                        <path d="M30.0918033,17.5588571 L30.0918033,12.0848571 C30.0918033,9.83085714 28.452459,8.51 25.6590164,8.51 C23.9043607,8.46137734 22.2092849,9.14991399 20.9836066,10.4091429 L20.9836066,10.1528571 C20.967785,9.58761289 20.8908322,9.02575574 20.7540984,8.47714286 L16.4852459,9.02257143 L16.4852459,9.34457143 C17.1788567,9.29426408 17.8439338,9.63003986 18.2163934,10.2185714 C18.5377049,10.764 18.6360656,11.408 18.6360656,13.5634286 L18.6360656,15.2851429 C18.0786885,19.9705714 15.8819672,21.6134286 11.8032787,21.6134286 C9.39672131,21.6134286 7.98032787,20.9562857 7.27213115,19.4251429 C6.85901639,18.5577143 6.72786885,17.526 6.72786885,14.6608571 L6.72786885,11.0531429 L7.62622951,11.0531429 C10.4852459,11.0531429 11.5606557,12.0848571 11.9344262,15.2391429 L12.3147541,15.2391429 L12.3803279,6.80142857 L11.9934426,6.80142857 C11.8360656,8.28657143 11.6459016,8.89771429 11.1934426,9.50885714 C10.5377049,10.3105714 9.75081967,10.5668571 7.65901639,10.5668571 L6.74754098,10.5668571 L6.74754098,1.104 L10.347541,1.104 C12.7213115,1.104 13.9409836,1.426 15.0032787,2.32628571 C16.044998,3.20610339 16.6842578,4.47312642 16.7737705,5.83542857 L17.1540984,5.83542857 L16.8983607,0.657142857 L0,0.657142857 L0,1.00542857 C1.31147541,1.07114286 2.05901639,1.39314286 2.62295082,2.13571429 C3.13442623,2.79285714 3.27868852,3.64714286 3.27868852,5.612 L3.27868852,17.1382857 C3.27868852,19.1097143 3.1147541,19.9705714 2.62295082,20.6145714 C2.13114754,21.2585714 1.31147541,21.6857143 0,21.7448571 L0,22.0931429 L23.2459016,22.0931429 L23.2459016,21.7777143 C21.1606557,21.39 20.9836066,21.0285714 20.9836066,17.5917143 L20.9836066,14.4965714 C20.9836066,12.2425714 21.0754098,11.5985714 21.5606557,10.7311429 C22.2264159,9.70114915 23.3863933,9.10116823 24.6098361,9.154 C25.7123495,9.0776172 26.7615344,9.63906214 27.3114754,10.5997143 C27.6327869,11.2568571 27.7245902,12.052 27.7245902,14.1417143 L27.7245902,17.4602857 C27.7245902,21.0022857 27.4688525,21.5148571 25.3836066,21.7777143 L25.3836066,22.0931429 L32.3081967,22.0931429 L32.3081967,21.7777143 C30.2557377,21.39 30.0590164,21.0285714 30.0918033,17.5588571 Z" id="Shape" fill-rule="nonzero"></path>
                        <path d="M59.442623,20.0691429 C58.6604826,20.9472744 57.5277549,21.4292934 56.3540984,21.3834286 C53.1737705,21.3834286 50.9245902,18.6102857 50.9245902,14.6871429 C50.9245902,14.3914286 50.9245902,14.03 50.9245902,13.5568571 L60.1770492,13.5568571 C60.1770492,10.534 58.0590164,8.50342857 54.9311475,8.50342857 C53.3690206,8.49599226 51.8537634,9.03781691 50.6491803,10.0345714 C50.6491803,10.0345714 50.6491803,9.982 50.6491803,9.94914286 C50.6491803,9.08171429 49.8491803,8.50342857 48.6229508,8.50342857 C46.8569046,8.4232326 45.1998552,9.35939279 44.3540984,10.9151429 C44.3614752,10.093211 44.2756795,9.27309853 44.0983607,8.47057143 L40,9.02257143 L40,8.47714286 L37.8819672,8.73342857 L34.157377,8.73342857 L34.157377,4.646 L33.5737705,4.646 C32.9967213,6.96571429 31.7770492,8.54285714 30.1639344,9.08828571 L30.1639344,9.34457143 L31.8360656,9.34457143 L31.8360656,18.8468571 C31.8360656,20.5488571 31.9344262,20.9694286 32.3803279,21.4754286 C32.8262295,21.9814286 33.9213115,22.3822857 35.2721311,22.3822857 C35.9226523,22.3955419 36.5705292,22.2954839 37.1868852,22.0865714 L46.8131148,22.0865714 L46.8131148,21.7711429 C44.7278689,21.39 44.5311475,21.0285714 44.5901639,17.5588571 L44.5901639,14.5951429 C44.5901639,11.3094286 45.4229508,9.37742857 46.8393443,9.37742857 C47.366205,9.37507423 47.8692298,9.59726167 48.2229508,9.98857143 C49.0229508,10.8888571 49.1540984,10.9545714 49.6327869,10.9545714 L49.757377,10.9545714 C48.7029941,12.2489338 48.1572564,13.8849809 48.2229508,15.5545714 C48.2229508,19.7734286 50.8852459,22.4151429 55.1934426,22.4151429 C58.1836066,22.4151429 59.9803279,21.1534286 60.5245902,18.7088571 L60.2032787,18.584 C60.0531564,19.1257396 59.7943268,19.6310916 59.442623,20.0691429 Z M54.6229508,8.89771429 C55.7376422,8.93234288 56.7441043,9.57533742 57.2459016,10.5734286 C57.6375473,11.3176521 57.8487165,12.1438773 57.8622951,12.9851429 L51.0557377,12.9851429 C51.3114754,10.5997143 52.8196721,8.86485714 54.6229508,8.86485714 L54.6229508,8.89771429 Z M37.6590164,17.4405714 C37.6590164,17.6377143 37.6590164,17.8151429 37.6590164,17.9925714 L37.6590164,19.8917143 C37.6024118,20.8173214 36.8368362,21.538958 35.9114754,21.538958 C34.9861146,21.538958 34.2205391,20.8173214 34.1639344,19.8917143 L34.1639344,9.37742857 L35.4754098,9.37742857 C36.1707114,9.327566 36.8375083,9.66293971 37.2131148,10.2514286 C37.5344262,10.7968571 37.6327869,11.4408571 37.6327869,13.5962857 L37.6590164,17.4405714 Z M42.2163934,17.4405714 L42.2163934,20.3714286 C42.2163934,20.9847802 41.7202369,21.482 41.1081967,21.482 C40.4961566,21.482 40,20.9847802 40,20.3714286 L40,9.34457143 C40.9967213,9.41028571 41.4163934,9.63371429 41.8032787,10.2185714 C42.1901639,10.8034286 42.2163934,11.408 42.2163934,13.5634286 L42.2163934,17.4405714 Z" id="Shape" fill-rule="nonzero"></path>
                        <path d="M79.1344262,9.05542857 L79.1344262,8.73342857 L74.5114754,8.73342857 L74.5114754,9.05542857 C75.7311475,9.41028571 76.1770492,9.89657143 76.1770492,10.8297143 C76.1454514,11.4779076 75.9825853,12.1128816 75.6983607,12.696 L73.2590164,18.906 L71.2,11.9862857 C71.0369153,11.4863666 70.9399144,10.9671834 70.9114754,10.442 C70.9114754,9.60085714 71.3245902,9.21971429 72.4852459,9.05542857 L72.4852459,8.73342857 L66.5114754,8.73342857 L66.5114754,9.05542857 C67.6,9.12114286 68.1442623,9.57457143 68.1442623,10.4748571 C68.1313641,10.9300778 68.0241786,11.377641 67.8295082,11.7891429 L65.1606557,18.906 L63.2655738,13.0508571 C62.9227399,12.2105829 62.7019133,11.3253834 62.6098361,10.4222857 C62.6098361,9.55485714 63.1868852,9.108 64.3737705,9.03571429 L64.3737705,8.71371429 L58.2819672,8.71371429 L58.2819672,9.03571429 C59.5934426,9.32485714 59.7967213,9.69285714 60.7278689,12.5448571 L63.842623,22.0734286 L64.3868852,22.0734286 L68.4983607,11.5591429 L71.9409836,22.0734286 L72.4852459,22.0734286 L76.2098361,12.742 C77.3770492,9.69942857 77.8163934,9.12114286 79.1344262,9.05542857 Z" id="Shape" fill-rule="nonzero"></path>
                        <path d="M83.5409836,8.54285714 C79.652459,8.54285714 76.1836066,11.7957143 76.1836066,15.4297143 C76.1836066,19.3265714 79.4295082,22.4217143 83.5737705,22.4217143 C87.5868852,22.4217143 90.8983607,19.2937143 90.8983607,15.5282857 C90.8983607,11.7628571 87.4885246,8.54285714 83.5409836,8.54285714 Z M83.6327869,22.0997143 C81.0098361,22.0997143 79.042623,19.136 79.042623,15.3048571 C79.042623,11.73 81.0098361,8.89771429 83.442623,8.89771429 C85.8754098,8.89771429 88.0327869,11.9205714 88.0327869,15.5282857 C88.0327869,19.136 86.0786885,22.0668571 83.6327869,22.0668571 L83.6327869,22.0997143 Z" id="Shape" fill-rule="nonzero"></path>
                        <path d="M101.593443,17.5588571 L101.593443,0 L97.095082,0.552 L97.095082,0.874 C97.7985769,0.815759539 98.4734454,1.16540144 98.8327869,1.77428571 C99.1540984,2.28685714 99.252459,2.93085714 99.252459,5.06 L99.252459,9.00285714 C98.7963687,8.61648415 98.2092299,8.42113637 97.6131148,8.45742857 C95.8455063,8.37784464 94.1868315,9.31348582 93.3377049,10.8691429 C93.3519235,10.065999 93.2771488,9.26375456 93.1147541,8.47714286 L89.095082,9.02257143 L89.095082,9.34457143 C89.7906741,9.29324486 90.4581781,9.62897422 90.8327869,10.2185714 C91.1540984,10.764 91.252459,11.408 91.252459,13.5634286 L91.252459,17.4274286 C91.252459,21.0022857 90.9967213,21.5148571 88.9377049,21.7777143 L88.9377049,22.0931429 L95.842623,22.0931429 L95.842623,21.7777143 C93.757377,21.39 93.5672131,21.0022857 93.5934426,17.5588571 L93.5934426,14.5951429 C93.5934426,11.3094286 94.4327869,9.37742857 95.842623,9.37742857 C96.3696572,9.37423764 96.8730076,9.59656889 97.2262295,9.98857143 C98.0327869,10.8888571 98.157377,10.9545714 98.642623,10.9545714 C98.8778827,10.9627985 99.1089971,10.8909995 99.2983607,10.7508571 L99.2983607,17.4274286 C99.2983607,21.0022857 99.042623,21.5148571 96.9836066,21.7777143 L96.9836066,22.0931429 L103.888525,22.0931429 L103.888525,21.7777143 C101.757377,21.39 101.567213,21.0285714 101.593443,17.5588571 Z" id="Shape" fill-rule="nonzero"></path>
                        <ellipse id="Oval" fill-rule="nonzero" cx="38.8196721" cy="1.57057143" rx="1.56721311" ry="1.57057143"></ellipse>
                        <path d="M118.327869,19.2411429 C117.911083,19.2393952 117.51077,19.4040938 117.21544,19.6988228 C116.920111,19.9935517 116.754095,20.3940318 116.754098,20.8117143 C116.757518,21.0588282 116.818124,21.3017744 116.931148,21.5214286 C115.567213,21.298 115.055738,20.378 115.055738,18.2357143 L115.055738,0.0394285714 L110.268852,0.650571429 L110.268852,1.03828571 C112.072131,1.03828571 112.714754,1.93857143 112.714754,4.25828571 L112.714754,10.0871429 C111.232787,8.89771429 110.268852,8.51 108.695082,8.51 C104.806557,8.51 102.045902,11.5065714 102.045902,15.6597143 C102.045902,19.6025714 104.668852,22.3888571 108.37377,22.3888571 C109.955381,22.3812569 111.496273,21.8856464 112.786885,20.9694286 C112.7595,21.5217998 112.812515,22.0752239 112.944262,22.6122857 L117.304918,21.9945714 C117.588499,22.2476258 117.954715,22.387881 118.334426,22.3888571 C119.162448,22.3352102 119.806663,21.6465287 119.806663,20.815 C119.806663,19.9834713 119.162448,19.2947898 118.334426,19.2411429 L118.327869,19.2411429 Z M112.072131,20.0034286 C111.536386,21.1568875 110.38431,21.8967179 109.114754,21.9025714 C106.708197,21.9025714 104.780328,19.0374286 104.780328,15.4297143 C104.780328,11.822 106.747541,8.93057143 109.245902,8.93057143 C110.386831,8.94203656 111.441849,9.5401689 112.039344,10.5142857 C112.55082,11.5065714 112.695082,12.5711429 112.695082,15.3705714 C112.714754,17.848 112.55082,18.9388571 112.072131,20.0034286 Z" id="Shape" fill-rule="nonzero"></path>
                    </g>
                </g>
            </g>
        </g>
    </g>
</svg>